{"title":"Dumb and Dumber 1994 DVDRip [H.264 - MP4 - AAC] ~Mindbreaker","uid":5257093,"size":1083754372,"categoryP":"video","categoryS":"movies","magnet":"?xt=urn:btih:2a7d0d0c8106acfa2e737c06e453e18108a51d02&amp;dn=Dumb+and+Dumber+1994+DVDRip+%5BH.264+-+MP4+-+AAC%5D+%7EMindbreaker&amp;tr=udp%3A%2F%2Ftracker.openbittorrent.com%3A80&amp;tr=udp%3A%2F%2Fopen.demonii.com%3A1337&amp;tr=udp%3A%2F%2Ftracker.coppersurfer.tk%3A6969&amp;tr=udp%3A%2F%2Fexodus.desync.com%3A6969","seeders":1,"leechers":0,"uploader":"mind3103","files":-1,"time":1262615727,"description":"imdb : http://www.imdb.com/title/tt0109686/\nTagline: What the one doesn't have, the other is missing.\nPlot: The cross-country adventures of two good-hearted but incredibly stupid friends.\nTotal Size : 1.01 GB\n\n\nGeneral\nComplete name : Dumb and Dumber 1994 DVDRip [H.264 - MP4 - AAC] ~Mindbreaker.mp4\nFormat : H.264/AAC/MP4 - Anamophic\nSource : DVD (ripped by unknow)\nFile size : 1.01 GiB\nDuration : 1h 42mn\nOverall bit rate : 1 414 Kbps\n\n\nVideo\nID : 1\nFormat : AVC\nFormat/Info : Advanced Video Codec\nFormat profile : &lt;a class=&quot;__cf_email__&quot; href=&quot;/cdn-cgi/l/email-protection&quot; data-cfemail=&quot;7b361a12153b3748554b&quot;&gt;[email&amp;#160;protected]&lt;/a&gt;&lt;script cf-hash='f9e31' type=&quot;text/javascript&quot;&gt;\n/* &lt;![CDATA[ */!function(){try{var t=&quot;currentScript&quot;in document?document.currentScript:function(){for(var t=document.getElementsByTagName(&quot;script&quot;),e=t.length;e--;)if(t[e].getAttribute(&quot;cf-hash&quot;))return t[e]}();if(t&amp;&amp;t.previousSibling){var e,r,n,i,c=t.previousSibling,a=c.getAttribute(&quot;data-cfemail&quot;);if(a){for(e=&quot;&quot;,r=parseInt(a.substr(0,2),16),n=2;a.length-n;n+=2)i=parseInt(a.substr(n,2),16)^r,e+=String.fromCharCode(i);e=document.createTextNode(e),c.parentNode.replaceChild(e,c)}}}catch(u){}}();/* ]]&gt; */&lt;/script&gt;\nDuration : 1h 42mn\nBit rate : 1250 Kbps\nWidth : 718 pixels\nHeight : 552 pixels\nDisplay aspect ratio : 1.850\nFrame rate : 25 fps\nBits/(Pixel*Frame) : 0.126\nStream size : 914 MiB (88%)\nWriting library : x264 core 79\n\nAudio\nID : 2\nFormat : AAC\nFormat/Info : Advanced Audio Codec\nFormat profile : LC\nDuration : 1h 42mn\nBit rate : 160 Kbps\nChannel(s) : 2 channels\nSampling rate : 48.0 KHz\nStream size : 117 MiB (11%)\nLanguage : English\n\nSubtitle\nFormat : SubRip\nLanguage : Dutch &amp; English\nSource : ondertitels.com &amp; opensubtitles.org &lt;a href=&quot;\nhttp://genesis.1337x.org:1337/announce&quot; rel=&quot;nofollow&quot; target=&quot;_NEW&quot;&gt;\nhttp://genesis.1337x.org:1337/announce&lt;/a&gt;\nhttp://tracker.openbittorrent.com/announce\nhttp://nemesis.1337x.org/announce\n\n\n","torrent":{"xt":"urn:btih:2a7d0d0c8106acfa2e737c06e453e18108a51d02","amp;dn":"Dumb+and+Dumber+1994+DVDRip+%5BH.264+-+MP4+-+AAC%5D+%7EMindbreaker","amp;tr":["udp%3A%2F%2Ftracker.openbittorrent.com%3A80","udp%3A%2F%2Fopen.demonii.com%3A1337","udp%3A%2F%2Ftracker.coppersurfer.tk%3A6969","udp%3A%2F%2Fexodus.desync.com%3A6969"],"infoHash":"2a7d0d0c8106acfa2e737c06e453e18108a51d02","infoHashBuffer":{"type":"Buffer","data":[42,125,13,12,129,6,172,250,46,115,124,6,228,83,225,129,8,165,29,2]},"announce":[],"urlList":[]}}